<svg width="128" height="128" viewBox="0 0 128 128" fill="none" xmlns="http://www.w3.org/2000/svg"><path fill="#fff" d="M0 0h128v128H0z"/><path d="M39.657 93.014V82.687c10.593 0 19.18-8.588 19.18-19.18h10.326c.005 16.295-13.206 29.507-29.506 29.507ZM10.15 63.507h10.327c0 10.593 8.588 19.18 19.18 19.18v10.327C23.36 93.018 10.15 79.807 10.15 63.507ZM88.343 34v10.327c-10.593 0-19.18 8.588-19.18 19.18H58.836C58.832 47.21 72.043 34 88.343 34Z" fill="#F08300"/><path d="M117.85 63.507h-10.327c0-10.593-8.588-19.18-19.18-19.18V34c16.295-.004 29.507 13.206 29.507 29.507Z" fill="#F08300"/><path d="M39.657 34v10.327c10.593 0 19.18 8.588 19.18 19.18h10.326C69.168 47.21 55.957 34 39.657 34Zm48.686 59.013V82.688c-10.593 0-19.18-8.588-19.18-19.18H58.836c-.004 16.295 13.207 29.506 29.507 29.506Z" fill="#25589B"/><path d="M117.85 63.507h-10.327c0 10.593-8.588 19.18-19.18 19.18v10.327c16.295.004 29.507-13.207 29.507-29.507Zm-107.7 0h10.327c0-10.593 8.588-19.18 19.18-19.18V34C23.36 33.996 10.15 47.206 10.15 63.507Z" fill="#25589B"/></svg>