<svg width="174" height="30" viewBox="0 0 174 30" fill="none" xmlns="http://www.w3.org/2000/svg"><path d="M11.507 26.014v-4.027a7.48 7.48 0 0 0 7.48-7.48h4.027c.001 6.355-5.15 11.507-11.507 11.507Z" fill="#F08300"/><path d="M0 14.507h4.027a7.48 7.48 0 0 0 7.48 7.48v4.027C5.152 26.015 0 20.864 0 14.507ZM30.493 3v4.027a7.48 7.48 0 0 0-7.48 7.48h-4.027C18.985 8.152 24.136 3 30.493 3ZM42 14.507h-4.027a7.48 7.48 0 0 0-7.48-7.48V3C36.848 2.998 42 8.15 42 14.507Z" fill="#F08300"/><path d="M11.507 3v4.027a7.48 7.48 0 0 1 7.48 7.48h4.027C23.015 8.152 17.864 3 11.507 3Z" fill="#25589B"/><path d="M0 14.507h4.027a7.48 7.48 0 0 1 7.48-7.48V3C5.152 2.998 0 8.15 0 14.507Zm30.493 11.507v-4.027a7.48 7.48 0 0 1-7.48-7.48h-4.027c-.001 6.355 5.15 11.507 11.507 11.507ZM42 14.507h-4.027a7.48 7.48 0 0 1-7.48 7.48v4.027C36.848 26.015 42 20.864 42 14.507Z" fill="#25589B"/><path d="M59.604 17.254a8.97 8.97 0 0 0 1.029 1.491c.378.42.791.749 1.239.987.462.238.966.357 1.512.357.672 0 1.218-.182 1.638-.546.42-.364.63-.84.63-1.428 0-.532-.133-.959-.399-1.281-.252-.336-.616-.616-1.092-.84a15.605 15.605 0 0 0-1.638-.693c-.364-.126-.77-.294-1.218-.504a7.345 7.345 0 0 1-1.281-.819 4.264 4.264 0 0 1-1.008-1.218c-.266-.49-.399-1.078-.399-1.764 0-.784.203-1.47.609-2.058a4.116 4.116 0 0 1 1.638-1.407c.7-.336 1.491-.504 2.373-.504.868 0 1.624.161 2.268.483.644.308 1.19.7 1.638 1.176.448.476.791.973 1.029 1.491l-1.995 1.134a5.059 5.059 0 0 0-.714-1.008 3.05 3.05 0 0 0-.987-.756c-.364-.196-.791-.294-1.281-.294-.686 0-1.19.161-1.512.483-.322.308-.483.672-.483 1.092 0 .378.112.721.336 1.029.238.294.602.574 1.092.84.49.266 1.127.539 1.911.819.448.154.889.35 1.323.588.448.238.847.532 1.197.882.364.35.658.77.882 1.26.224.476.336 1.036.336 1.68 0 .686-.14 1.302-.42 1.848a4.072 4.072 0 0 1-1.092 1.386 5.156 5.156 0 0 1-1.575.84 5.215 5.215 0 0 1-1.806.315 5.735 5.735 0 0 1-2.394-.504 6.784 6.784 0 0 1-1.932-1.386 7.255 7.255 0 0 1-1.302-1.869l1.848-1.302ZM75.638 7.3h2.478V22h-2.478V7.3Zm1.47 2.184V7.3h2.961c1.078 0 2.009.189 2.793.567.784.364 1.393.889 1.827 1.575.448.672.672 1.477.672 2.415s-.224 1.75-.672 2.436c-.434.686-1.043 1.218-1.827 1.596-.784.364-1.715.546-2.793.546h-2.961v-2.184h2.961c.854 0 1.54-.203 2.058-.609.518-.406.777-1.001.777-1.785s-.259-1.372-.777-1.764c-.518-.406-1.204-.609-2.058-.609h-2.961Zm14.766 5.502h2.667L99.539 22h-3.003l-4.662-7.014ZM88.829 7.3h2.478V22h-2.478V7.3Zm1.47 2.142V7.3h3.066c1.078 0 2.009.189 2.793.567.784.378 1.393.91 1.827 1.596.448.672.672 1.47.672 2.394 0 .924-.224 1.729-.672 2.415-.434.686-1.043 1.218-1.827 1.596-.784.378-1.715.567-2.793.567h-3.066v-2.058h2.96c.575 0 1.072-.091 1.492-.273.42-.196.749-.476.987-.84.238-.378.357-.826.357-1.344 0-.532-.12-.98-.357-1.344a2.323 2.323 0 0 0-.987-.84c-.42-.196-.917-.294-1.491-.294h-2.961Zm13.854 5.208c0 1.008.217 1.904.651 2.688a5.03 5.03 0 0 0 1.764 1.869c.756.448 1.617.672 2.583.672.98 0 1.841-.224 2.583-.672a4.818 4.818 0 0 0 1.764-1.869c.434-.784.651-1.68.651-2.688 0-1.008-.21-1.904-.63-2.688a4.634 4.634 0 0 0-1.764-1.869c-.742-.448-1.61-.672-2.604-.672-.966 0-1.827.224-2.583.672a4.829 4.829 0 0 0-1.764 1.869c-.434.784-.651 1.68-.651 2.688Zm-2.625 0c0-1.106.189-2.121.567-3.045a7.041 7.041 0 0 1 1.596-2.394 7.503 7.503 0 0 1 2.436-1.596 7.763 7.763 0 0 1 3.024-.588c1.106 0 2.121.196 3.045.588.924.378 1.729.91 2.415 1.596.7.672 1.239 1.47 1.617 2.394.378.924.567 1.939.567 3.045a8.07 8.07 0 0 1-.567 3.045 7.217 7.217 0 0 1-1.596 2.436 7.544 7.544 0 0 1-2.415 1.617c-.924.378-1.946.567-3.066.567a8.07 8.07 0 0 1-3.045-.567 7.544 7.544 0 0 1-2.415-1.617 7.217 7.217 0 0 1-1.596-2.436 8.07 8.07 0 0 1-.567-3.045Zm16.642-5.061V7.3h10.248v2.289h-3.885V22h-2.478V9.589h-3.885ZM132.805 22v-2.184h7.413V22h-7.413Zm0-12.516V7.3h7.413v2.184h-7.413Zm0 5.712v-2.142h6.993v2.142h-6.993ZM131.272 7.3h2.436V22h-2.436V7.3Zm14.895 7.35c0 1.036.231 1.946.693 2.73a5.186 5.186 0 0 0 1.848 1.806 4.89 4.89 0 0 0 2.478.651c.7 0 1.33-.091 1.89-.273a5.76 5.76 0 0 0 1.533-.735c.448-.322.84-.686 1.176-1.092v2.961a6.633 6.633 0 0 1-1.995 1.155c-.714.266-1.61.399-2.688.399a8.286 8.286 0 0 1-3.024-.546 7.007 7.007 0 0 1-2.415-1.575 7.544 7.544 0 0 1-1.617-2.415c-.378-.938-.567-1.96-.567-3.066 0-1.12.189-2.142.567-3.066a7.25 7.25 0 0 1 1.617-2.415 7.007 7.007 0 0 1 2.415-1.575 8.014 8.014 0 0 1 3.024-.567c1.078 0 1.974.133 2.688.399a6.413 6.413 0 0 1 1.995 1.176v2.94a6.061 6.061 0 0 0-1.176-1.05 5.403 5.403 0 0 0-1.533-.756c-.56-.182-1.19-.273-1.89-.273a4.89 4.89 0 0 0-2.478.651c-.756.42-1.372 1.022-1.848 1.806-.462.77-.693 1.68-.693 2.73Zm14.708.609V12.97h10.5v2.289h-10.5Zm8.883-7.959h2.478V22h-2.478V7.3Zm-9.87 0h2.478V22h-2.478V7.3Z" fill="#171719"/></svg>